<?xml version="1.0" standalone="no"?><!DOCTYPE svg PUBLIC "-//W3C//DTD SVG 1.1//EN" "http://www.w3.org/Graphics/SVG/1.1/DTD/svg11.dtd"><svg t="1513765302498" class="icon" style="" viewBox="0 0 1024 1024" version="1.1" xmlns="http://www.w3.org/2000/svg" p-id="22140" xmlns:xlink="http://www.w3.org/1999/xlink" width="200" height="200"><defs><style type="text/css"></style></defs><path d="M511.95904 29.04064C245.1456 29.04064 28.99968 245.26848 28.99968 512c0 266.81344 216.14592 482.95936 482.95936 482.95936 266.8544 0 483.04128-216.14592 483.04128-482.95936 0-266.73152-216.2688-482.95936-483.04128-482.95936z m-96.256 499.01568l218.39872-215.32672 75.28448 77.66016-215.40864 218.9312-78.27456-81.26464z m59.43296 91.79136l-118.86592 50.5856L402.2272 548.0448l72.9088 71.80288z m264.47872 141.06624c0 6.51264-5.44768 11.8784-11.91936 11.8784H259.93216a11.8784 11.8784 0 0 1-11.8784-11.8784V296.67328c0-6.59456 5.28384-11.8784 11.8784-11.8784h332.43136l-48.66048 51.73248H309.90336c-5.40672 0-9.8304 4.5056-9.8304 9.95328v364.78976c0 5.44768 4.42368 9.8304 9.8304 9.8304h367.65696a9.87136 9.87136 0 0 0 9.91232-9.8304v-233.51296l52.10112-48.3328v331.48928h0.04096z m31.78496-429.95712c-10.19904 11.4688-43.49952 45.01504-43.49952 45.01504l-78.80704-78.52032 38.7072-38.66624s17.69472-16.87552 40.59136 0c23.01952 16.71168 42.88512 38.66624 42.88512 38.66624s10.36288 22.03648 0.12288 33.50528z" fill="#319DD8" p-id="22141"></path></svg>